<svg xmlns="http://www.w3.org/2000/svg" viewBox="0 0 25 25"><defs><style>.\37 954f0d3-94ca-474a-94e4-712c4e1d1259{fill:#00b3e3;}</style></defs><title>Instagram</title><g id="76c9bab1-b4cd-4373-94b6-2582a1519066" data-name="Layer 2"><g id="2c404eb8-fb46-4f0d-bf82-394bf8f8169e" data-name="Layer 1"><path class="7954f0d3-94ca-474a-94e4-712c4e1d1259" d="M18.27,16.79a1.49,1.49,0,0,1-1.48,1.48H8.21a1.49,1.49,0,0,1-1.48-1.48V8.21A1.49,1.49,0,0,1,8.21,6.73h8.59a1.49,1.49,0,0,1,1.48,1.48ZM17,11.61H16a3.28,3.28,0,0,1,.15,1,3.59,3.59,0,0,1-7.18,0,3.3,3.3,0,0,1,.15-1H8v4.87a.46.46,0,0,0,.46.46h8a.46.46,0,0,0,.46-.46Zm-4.46-1.38a2.25,2.25,0,1,0,2.32,2.25A2.28,2.28,0,0,0,12.51,10.23ZM17,8.53A.52.52,0,0,0,16.45,8H15.14a.52.52,0,0,0-.52.52V9.77a.52.52,0,0,0,.52.52h1.31A.52.52,0,0,0,17,9.77Z"/><path class="7954f0d3-94ca-474a-94e4-712c4e1d1259" d="M12.5,25A12.5,12.5,0,1,1,25,12.5,12.51,12.51,0,0,1,12.5,25Zm0-24A11.53,11.53,0,1,0,24,12.5,11.54,11.54,0,0,0,12.5,1Z"/></g></g></svg>