<svg xmlns="http://www.w3.org/2000/svg" viewBox="0 0 25 25"><defs><style>.\36 788aed5-b319-4d1c-b197-0ee3b8c87d31{fill:#00b3e3;}</style></defs><title>Twitter</title><g id="4e242243-6af4-4206-8d77-9d1030e22f77" data-name="Layer 2"><g id="9d5d0965-2725-4deb-b390-a51f0ae41c4c" data-name="Layer 1"><path class="6788aed5-b319-4d1c-b197-0ee3b8c87d31" d="M17.8,10.69c0,.11,0,.21,0,.32A6.91,6.91,0,0,1,7.17,16.83a5,5,0,0,0,.59,0,4.86,4.86,0,0,0,3-1A2.43,2.43,0,0,1,8.5,14.14a3.05,3.05,0,0,0,.46,0,2.57,2.57,0,0,0,.64-.08,2.43,2.43,0,0,1-1.95-2.38v0a2.44,2.44,0,0,0,1.1.31A2.43,2.43,0,0,1,8,8.74a6.9,6.9,0,0,0,5,2.54,2.73,2.73,0,0,1-.06-.56,2.43,2.43,0,0,1,4.2-1.66,4.78,4.78,0,0,0,1.54-.59,2.42,2.42,0,0,1-1.07,1.34A4.86,4.86,0,0,0,19,9.44,5.22,5.22,0,0,1,17.8,10.69Z"/><path class="6788aed5-b319-4d1c-b197-0ee3b8c87d31" d="M12.5,25A12.5,12.5,0,1,1,25,12.5,12.51,12.51,0,0,1,12.5,25Zm0-24A11.53,11.53,0,1,0,24,12.5,11.54,11.54,0,0,0,12.5,1Z"/></g></g></svg>