<svg xmlns="http://www.w3.org/2000/svg" xmlns:xlink="http://www.w3.org/1999/xlink" viewBox="0 0 100 100"><defs><style>.b112154c-8516-4296-9733-e6fb3d988581{fill:none;}.\38 3540e92-8297-4985-9555-10dde94947ee{fill:#002f87;}.bde53255-f29c-409d-8680-36b635d46de4{clip-path:url(#8f9e4757-36ba-4f81-bce9-092c2d898c69);}.\30 12a1b31-946f-4d7e-81e9-9285e7e46bb7{fill:#fff;}</style><clipPath id="8f9e4757-36ba-4f81-bce9-092c2d898c69"><rect class="b112154c-8516-4296-9733-e6fb3d988581" width="100" height="100"/></clipPath></defs><title>BCM_100</title><g id="e093cef6-b8ae-4799-b272-2ce15d3300b0" data-name="Layer 2"><g id="09060f85-e23f-476f-a49c-b00f37f5ee49" data-name="Layer 1"><rect class="83540e92-8297-4985-9555-10dde94947ee" width="100" height="100"/><g class="bde53255-f29c-409d-8680-36b635d46de4"><path class="012a1b31-946f-4d7e-81e9-9285e7e46bb7" d="M54.36,40.56v-.41c2-.3,2.09-.62,2.12-2.74V26c0-1.14,0-1.49-1.33-2.47v-.27L57.8,22l.3.11V37.41c0,2.23.11,2.44,2.11,2.74v.41Z"/><path class="012a1b31-946f-4d7e-81e9-9285e7e46bb7" d="M38.15,31.8c0-2.1-.79-2.61-2.06-2.61-2.8,0-1.64,3.13-3.43,3.13a.78.78,0,0,1-.88-.82c0-1.12,2.73-3,5.07-3,2,0,3,1.44,3,4.05v6.64c0,.7.83.48,1.16.48a1.47,1.47,0,0,0,1.06-.46l.3.33A3,3,0,0,1,40,40.67a1.85,1.85,0,0,1-1.88-1.79,6,6,0,0,1-4,1.79,2.1,2.1,0,0,1-2.33-2.37c0-2.09,1.12-2.7,4.67-3.61l1.64-.43Zm0,2.94-1.21.31c-2.28.57-3.46,1.27-3.46,2.55a1.87,1.87,0,0,0,2,2,4.64,4.64,0,0,0,2.67-1.25Z"/><path class="012a1b31-946f-4d7e-81e9-9285e7e46bb7" d="M23.93,30.82c2.47.57,5,1.85,5,5,0,5-5.89,4.78-7.25,4.75l-6.27-.05v-.41c3.26-.44,2.82-1.25,2.91-4V26.69c-.08-2.79.35-3.61-2.74-4v-.41L19.86,22c3-.11,7.82.32,7.82,4.61,0,2.67-1.61,3.56-3.75,4.1Zm-4,5c0,2.12-.14,4.13,2.63,4.13,2.36,0,4.48-1.55,4.48-3.94,0-1.66-2-4.94-6.05-4.75l-1.05.05Zm0-5.08c2.52,0,6.11-.71,6.11-3.86s-3.34-4.26-6.11-4.26Z"/><path class="012a1b31-946f-4d7e-81e9-9285e7e46bb7" d="M43.9,30.68c-.49-1.23-.6-1.5-2-1.71v-.41h5V29c-2.06.11-1.52,1.36-1,2.74l2.66,6.9,1.68-4.89c1.22-3.53,1.44-4.48-.57-4.75v-.41h4.75V29c-1.19.14-1.57.62-2.09,1.66L51.3,33.26l-3.51,8.6c-1,2.52-1.71,3.36-2.8,3.36a1.34,1.34,0,0,1-1.33-1.35,1.32,1.32,0,0,1,.87-1.28,5.14,5.14,0,0,0,1.44.76c.6,0,1.08-1.47,1.28-1.88l.22-.64Z"/><path class="012a1b31-946f-4d7e-81e9-9285e7e46bb7" d="M67.53,40.83c-3.72,0-6-2.36-6-6.21s2.37-6.33,6-6.33a5.85,5.85,0,0,1,6.22,6.22,6.09,6.09,0,0,1-6.25,6.32m0-11.94c-2.93,0-4.13,3-4.13,5.54s1.41,5.81,4.35,5.81c2.74,0,4-3.13,4-5.46,0-2.5-1.22-5.89-4.18-5.89"/><path class="012a1b31-946f-4d7e-81e9-9285e7e46bb7" d="M79.34,37.41c0,1.66-.22,2.51,1.92,2.74v.41H75.68v-.41c1.87-.3,2-.62,2-2.74V32.23c0-1.14,0-1.49-1.33-2.47v-.27l2.83-1.2.3.11-.11,3.2h.05c.6-1.44,2.12-3.31,3.83-3.31a1.28,1.28,0,0,1,1.38,1.25c0,.73-.79,1.41-1.41,1.7-.46-.35-1.14-.94-1.74-.89-2.31.22-2.12,3.91-2.12,4.32Z"/><path class="012a1b31-946f-4d7e-81e9-9285e7e46bb7" d="M26.37,51.11h-.23c-.3-1.76-1.33-3-3.2-3-2.86,0-4.46,2.34-4.46,5a5,5,0,0,0,4.62,5.22c2,0,2.86-1.5,3.56-3.19l.22.1A15,15,0,0,1,26,58a7.13,7.13,0,0,1-3.18.67c-3.27,0-6.17-1.87-6.17-5.4,0-2.78,2.17-5.59,6.29-5.59a6.65,6.65,0,0,1,3.41.85Z"/><path class="012a1b31-946f-4d7e-81e9-9285e7e46bb7" d="M31.91,58.66a3.56,3.56,0,0,1-3.84-3.57,3.68,3.68,0,0,1,3.86-3.64A3.56,3.56,0,0,1,35.74,55a3.7,3.7,0,0,1-3.83,3.63m0-6.87c-1.68,0-2.37,1.75-2.37,3.18s.81,3.34,2.49,3.34,2.28-1.8,2.28-3.14-.7-3.39-2.41-3.39"/><path class="012a1b31-946f-4d7e-81e9-9285e7e46bb7" d="M36.26,58.51v-.23c1.16-.17,1.2-.36,1.22-1.58V49.84c0-.66,0-.86-.76-1.42v-.15l1.79-.69.17.06V56.7c0,1.28.06,1.41,1.22,1.58v.23Z"/><path class="012a1b31-946f-4d7e-81e9-9285e7e46bb7" d="M40.48,58.51v-.23c1.15-.17,1.2-.36,1.21-1.58V49.84c0-.66,0-.86-.76-1.42v-.15l1.79-.69.17.06V56.7c0,1.28.06,1.41,1.22,1.58v.23Z"/><path class="012a1b31-946f-4d7e-81e9-9285e7e46bb7" d="M45.78,54.53a2.79,2.79,0,0,0,2.75,3.14,2.17,2.17,0,0,0,1.84-1l.23.17a3.45,3.45,0,0,1-2.87,1.81,3.32,3.32,0,0,1-3.28-3.46A3.56,3.56,0,0,1,48,51.45a2.26,2.26,0,0,1,2.41,2.29H45.84Zm3.11-1.2c-.14-.72-.58-1.53-1.41-1.53s-1.42.87-1.59,1.66Z"/><path class="012a1b31-946f-4d7e-81e9-9285e7e46bb7" d="M56.45,57.32C58.12,57.26,59,58,59,59c0,1.53-2.08,3.28-4.86,3.28-1.86,0-2.63-.94-2.63-1.59,0-1.17,1.2-1.72,2.09-2.18-.59-.08-1.59-.47-1.59-1.19,0-.48.83-1.09,1.19-1.37A2.31,2.31,0,0,1,52,54a2.69,2.69,0,0,1,2.94-2.5,4.64,4.64,0,0,1,2,.5h2.23v.65l-1.9,0a2.29,2.29,0,0,1,.32,1.22,2.67,2.67,0,0,1-2.91,2.5,3.31,3.31,0,0,1-1.17-.21c-.52.49-.5,1.39.93,1.32Zm-2.29,1.19c-.57.25-1.45.87-1.45,1.56,0,1.14,1.66,1.45,2.53,1.45,1.12,0,2.87-.49,2.87-1.87s-2-1.25-2.42-1.23ZM56.26,54c0-1-.45-2.2-1.62-2.2-1,0-1.34,1-1.34,1.89,0,1.55.93,2.25,1.64,2.25,1,0,1.33-1.06,1.33-1.93"/><path class="012a1b31-946f-4d7e-81e9-9285e7e46bb7" d="M61.4,54.53a2.8,2.8,0,0,0,2.75,3.14,2.16,2.16,0,0,0,1.84-1l.23.17a3.45,3.45,0,0,1-2.87,1.81,3.32,3.32,0,0,1-3.28-3.46,3.57,3.57,0,0,1,3.52-3.75A2.26,2.26,0,0,1,66,53.75H61.46Zm3.11-1.2c-.14-.72-.58-1.53-1.41-1.53s-1.42.87-1.59,1.66Z"/><path class="012a1b31-946f-4d7e-81e9-9285e7e46bb7" d="M73.43,58.66a3.56,3.56,0,0,1-3.84-3.57,3.68,3.68,0,0,1,3.86-3.64A3.56,3.56,0,0,1,77.27,55a3.71,3.71,0,0,1-3.84,3.63m0-6.87C71.73,51.8,71,53.54,71,55s.81,3.34,2.5,3.34,2.28-1.8,2.28-3.14-.7-3.39-2.4-3.39"/><path class="012a1b31-946f-4d7e-81e9-9285e7e46bb7" d="M77.79,52.26l1.26-.73A4.65,4.65,0,0,1,79.68,49a3.3,3.3,0,0,1,2.7-1.67c.61,0,1.81.25,1.81,1.06,0,.5-.44.68-.86.66-.37-.54-1-1.24-1.71-1.24-1.27,0-1.36,2.15-1.36,3v.93h2v.65h-2V56.7c0,1.28.06,1.41,1.5,1.58v.24H77.8v-.24c1.19-.17,1.23-.36,1.25-1.58V52.42H77.79Z"/><path class="012a1b31-946f-4d7e-81e9-9285e7e46bb7" d="M33.25,73.06a3.23,3.23,0,0,0,3.18,3.62,2.52,2.52,0,0,0,2.13-1.13l.27.2a4,4,0,0,1-3.32,2.09,3.84,3.84,0,0,1-3.79-4,4.12,4.12,0,0,1,4.06-4.33,2.61,2.61,0,0,1,2.78,2.65H33.33Zm3.59-1.39c-.16-.83-.67-1.76-1.62-1.76s-1.64,1-1.84,1.91Z"/><path class="012a1b31-946f-4d7e-81e9-9285e7e46bb7" d="M52.68,66.93a.93.93,0,1,1-.93-.93.93.93,0,0,1,.93.93"/><path class="012a1b31-946f-4d7e-81e9-9285e7e46bb7" d="M65.85,66.93a.93.93,0,1,1-.93-.93.93.93,0,0,1,.93.93"/><path class="012a1b31-946f-4d7e-81e9-9285e7e46bb7" d="M46.28,78V76.27a4.43,4.43,0,0,1-3,1.57,3.69,3.69,0,0,1-3.39-3.76,4.63,4.63,0,0,1,4.87-4.58,6,6,0,0,1,1.5.18V67.32c0-.75,0-.38-.89-1v-.18l2.07-.79.2.07v10c0,1.66,0,1.88,1.51,1.66l.07.31Zm0-5.37a2.34,2.34,0,0,0-2.44-2.54c-1.67,0-2.4,1.71-2.4,3.15,0,2.6,1.55,3.71,2.89,3.71a2.67,2.67,0,0,0,1.95-1.25Z"/><path class="012a1b31-946f-4d7e-81e9-9285e7e46bb7" d="M49.77,77.66v-.27c1.33-.2,1.39-.42,1.41-1.83V72.12c0-.76,0-1-1.1-1.64V70.3l2.29-.8.2.08v6c0,1.48.07,1.63,1.41,1.83v.27Z"/><path class="012a1b31-946f-4d7e-81e9-9285e7e46bb7" d="M61.78,76.34a4.23,4.23,0,0,1-3.18,1.5,3.79,3.79,0,0,1-3.71-4,4.52,4.52,0,0,1,4.63-4.39c.58,0,2,.08,2,.9a.92.92,0,0,1-.85.83c-.64,0-1.28-1.17-2.19-1.17-1.44,0-2.13,1.68-2.13,2.9a3.52,3.52,0,0,0,3.37,3.8,3,3,0,0,0,1.86-.7Z"/><path class="012a1b31-946f-4d7e-81e9-9285e7e46bb7" d="M62.72,77.66v-.27c1.34-.2,1.39-.42,1.41-1.83V72.12c0-.76,0-1-1.1-1.64V70.3l2.29-.8.2.08v6c0,1.48.07,1.63,1.41,1.83v.27Z"/><path class="012a1b31-946f-4d7e-81e9-9285e7e46bb7" d="M68.89,72.12c0-.76,0-1-.88-1.64V70.3l2.14-.8.2.08-.14,1.32a5.47,5.47,0,0,1,3.17-1.39c2.17,0,2.27,1.79,2.27,2.85v3.21c0,1.48.07,1.63,1.4,1.83v.27h-4.2v-.27c1.34-.2,1.39-.42,1.41-1.83V73.49c0-1.27.05-3-2.15-3a2.48,2.48,0,0,0-1.84.78v4.34c0,1.48.07,1.63,1.41,1.83v.27h-4.2v-.27c1.34-.2,1.39-.42,1.41-1.83Z"/><path class="012a1b31-946f-4d7e-81e9-9285e7e46bb7" d="M79,73.06a3.23,3.23,0,0,0,3.17,3.62,2.51,2.51,0,0,0,2.13-1.13l.27.2a4,4,0,0,1-3.32,2.09,3.84,3.84,0,0,1-3.79-4,4.12,4.12,0,0,1,4.06-4.33,2.61,2.61,0,0,1,2.78,2.65H79.1Zm3.59-1.39c-.16-.83-.67-1.76-1.63-1.76s-1.64,1-1.84,1.91Z"/><path class="012a1b31-946f-4d7e-81e9-9285e7e46bb7" d="M26.33,77.27c1.39-.08,1.72-.31,1.7-1.12-.08-2.9-.08-5.88-.2-8.72h0c-1.55,3.35-3.29,6.82-4.59,10h-.27c-.35-.76-.87-2.25-1.49-3.48s-1.92-4.12-3.06-6.79h0c0,3.15-.16,6.11-.16,7.87,0,1.57.35,2.21,1.76,2.21v.39h-4v-.39c1.11-.2,1.51-.47,1.63-2,.19-2.47.29-6.25.29-7.25,0-2-.27-2.13-1.74-2.2V65.4h3.19l3.44,7.81c.27.62.56,1.14.82,1.88l4.66-9.69h3v.39c-1.53.09-1.86.46-1.86,2,0,.75.14,5,.19,8.51,0,.78.47.95,1.66,1v.39H26.33Z"/></g></g></g></svg>