<svg xmlns="http://www.w3.org/2000/svg" viewBox="0 0 25 25"><defs><style>.a8ef7715-9d84-4ef7-a348-9cc44d97549c{fill:#00b3e3;}</style></defs><title>Facebook</title><g id="fd67f4d6-1b5d-4b9a-b5ee-fa1c7a08cf87" data-name="Layer 2"><g id="529629a1-33b3-4bfc-8dc9-9cfc9c9da2be" data-name="Layer 1"><path class="a8ef7715-9d84-4ef7-a348-9cc44d97549c" d="M15.75,8.45H14.57c-.93,0-1.1.44-1.1,1.08V11h2.2l-.29,2.23H13.47v5.71h-2.3V13.18H9.25V11h1.92V9.31A2.68,2.68,0,0,1,14,6.37a14.72,14.72,0,0,1,1.71.09Z"/><path class="a8ef7715-9d84-4ef7-a348-9cc44d97549c" d="M12.5,25A12.5,12.5,0,1,1,25,12.5,12.51,12.51,0,0,1,12.5,25Zm0-24A11.53,11.53,0,1,0,24,12.5,11.54,11.54,0,0,0,12.5,1Z"/></g></g></svg>