<svg xmlns="http://www.w3.org/2000/svg" viewBox="0 0 25 25"><defs><style>.\34 15a8241-3e6a-4954-a8fd-78c24acb9c73{fill:#00b3e3;}</style></defs><title>LinkedIn</title><g id="67258fae-6ace-415f-b33a-96bc9c753c98" data-name="Layer 2"><g id="c875fb5f-2def-47cb-8279-58d2f8df798c" data-name="Layer 1"><path class="415a8241-3e6a-4954-a8fd-78c24acb9c73" d="M8.56,8.72h0A1.28,1.28,0,0,1,7.18,7.43a1.29,1.29,0,0,1,1.4-1.29,1.29,1.29,0,1,1,0,2.57ZM9.8,17.18H7.32V9.73H9.8Zm8.93,0H16.25v-4c0-1-.36-1.68-1.26-1.68a1.36,1.36,0,0,0-1.27.9,1.86,1.86,0,0,0-.08.61v4.16H11.17c0-6.75,0-7.45,0-7.45h2.47v1.08h0a2.46,2.46,0,0,1,2.25-1.26c1.63,0,2.85,1.07,2.85,3.35Z"/><path class="415a8241-3e6a-4954-a8fd-78c24acb9c73" d="M12.5,25A12.5,12.5,0,1,1,25,12.5,12.51,12.51,0,0,1,12.5,25Zm0-24A11.53,11.53,0,1,0,24,12.5,11.54,11.54,0,0,0,12.5,1Z"/></g></g></svg>